<svg width="512" height="512" viewBox="0 0 512 512" fill="none" xmlns="http://www.w3.org/2000/svg">
<g clip-path="url(#clip0_35_25)">
<path d="M263.744 318.869C263.744 279.445 244.992 250.304 206.251 239.381C234.517 225.92 249.259 205.525 249.259 173.803C249.259 111.253 202.496 96 148.544 96H0V410.048H152.704C209.963 410.048 263.744 382.677 263.744 318.869ZM69.248 149.611H134.229C159.211 149.611 181.696 156.608 181.696 185.493C181.696 212.16 164.203 222.891 139.456 222.891H69.248V149.611ZM69.2267 356.715V270.229H144.704C175.189 270.229 194.475 282.901 194.475 315.072C194.475 346.795 171.456 356.715 143.275 356.715H69.2267Z" fill="white"/>
<path d="M400.981 416C455.467 416 490.752 391.531 507.733 339.52H452.437C446.485 358.933 421.952 369.195 402.923 369.195C366.208 369.195 346.923 347.755 346.923 311.317H511.467C516.672 238.4 476.053 176.256 400.96 176.256C331.435 176.256 284.245 228.352 284.245 296.597C284.245 367.424 328.96 416 400.981 416ZM399.019 223.445C430.485 223.445 446.315 241.877 448.96 272.021H347.008C349.077 242.133 368.981 223.445 399.019 223.445Z" fill="white"/>
<path d="M334.229 112.491H461.973V143.424H334.229V112.491Z" fill="white"/>
</g>
<defs>
<clipPath id="clip0_35_25">
<rect width="512" height="512" fill="white"/>
</clipPath>
</defs>
</svg>
