<svg width="187" height="187" viewBox="0 0 187 187" fill="none" xmlns="http://www.w3.org/2000/svg">
<g clip-path="url(#clip0_35_8)">
<path d="M93.423 0.000976562C41.909 0.000976562 0 41.91 0 93.423C0 144.936 41.909 186.845 93.423 186.845C144.937 186.845 186.846 144.936 186.846 93.423C186.846 41.91 144.937 0.000976562 93.423 0.000976562ZM154.303 44.061C164.791 56.971 171.248 73.266 171.785 91.029C152.357 87.007 134.765 87.479 119.235 90.524C116.423 83.948 113.512 77.683 110.574 71.762C127.487 64.476 142.211 55.17 154.303 44.061ZM143.779 33.365C131.776 44.321 117.866 52.433 103.623 58.422C93.169 39.305 83.167 24.909 77.074 16.728C82.35 15.604 87.817 15.001 93.423 15.001C112.58 15.001 130.145 21.915 143.779 33.365ZM61.924 21.627C66.525 27.589 77.484 42.517 89.256 63.756C59.67 73.395 30.962 75.019 17.167 75.17C22.917 51.15 39.738 31.399 61.924 21.627ZM15.082 90.208C15.23 90.208 15.373 90.209 15.524 90.209C25.056 90.209 42.52 89.568 63.08 85.819C74.81 83.68 85.933 80.801 96.37 77.233C99.087 82.648 101.788 88.36 104.407 94.347C89.793 99.052 77.469 105.822 67.707 112.544C51.337 123.817 39.869 136.324 33.607 144.057C22.013 130.384 15 112.712 15 93.423C15 92.345 15.038 91.276 15.082 90.208ZM44.416 154.582C49.807 147.794 60.78 135.439 76.653 124.598C87.44 117.23 98.6 111.756 110.089 108.163C116.755 125.441 122.446 144.532 125.839 164.803C115.951 169.311 104.981 171.845 93.423 171.845C74.891 171.845 57.852 165.37 44.416 154.582ZM139.639 156.726C136.142 138.109 130.927 120.604 124.898 104.606C139.728 102.104 155.055 102.62 170.797 106.156C167.402 126.846 155.889 144.83 139.639 156.726Z" fill="white"/>
</g>
<defs>
<clipPath id="clip0_35_8">
<rect width="186.846" height="186.846" fill="white"/>
</clipPath>
</defs>
</svg>
