<svg width="82" height="25" viewBox="0 0 82 25" fill="none" xmlns="http://www.w3.org/2000/svg">
<path d="M22.4032 15.9488C21.0883 15.9488 19.8563 15.392 18.7368 14.4858L19.0093 13.2064L19.0211 13.159C19.264 11.7967 20.034 9.51043 22.4032 9.51043C24.1801 9.51043 25.6253 10.9556 25.6253 12.7326C25.6194 14.5035 24.1742 15.9488 22.4032 15.9488ZM22.4032 6.24684C19.3765 6.24684 17.031 8.21328 16.0774 11.4473C14.6203 9.26166 13.5186 6.63776 12.873 4.42847H9.61537V12.9043C9.61537 14.5746 8.25307 15.9369 6.58278 15.9369C4.91248 15.9369 3.55018 14.5746 3.55018 12.9043V4.42847H0.292518V12.9043C0.280672 16.3752 3.10596 19.2242 6.57685 19.2242C10.0477 19.2242 12.873 16.3752 12.873 12.9043V11.4828C13.5068 12.8036 14.2827 14.1363 15.2245 15.3209L13.2284 24.703H16.5631L18.0083 17.8974C19.2758 18.7089 20.7329 19.2183 22.4032 19.2183C25.9748 19.2183 28.883 16.2923 28.883 12.7207C28.883 9.15505 25.9748 6.24684 22.4032 6.24684Z" fill="#00BAFF"/>
<path d="M38.8278 6.61419L40.9304 15.09L43.2464 6.61419H46.0065L42.4467 18.863H39.6866L37.501 10.3339L35.3213 18.8571H32.5612L29.0015 6.60826H31.7616L34.0775 15.0841L36.1802 6.60826H38.8278V6.61419ZM52.6107 6.24696C49.0272 6.24696 46.1249 9.15517 46.1249 12.7327C46.1249 16.3161 49.0332 19.2184 52.6107 19.2184C56.1941 19.2184 59.1023 16.3161 59.1023 12.7327C59.1023 9.14924 56.1941 6.24696 52.6107 6.24696ZM52.6107 16.553C50.5021 16.553 48.7962 14.8472 48.7962 12.7386C48.7962 10.63 50.508 8.92417 52.6107 8.92417C54.7193 8.92417 56.4251 10.63 56.4251 12.7386C56.4251 14.8413 54.7193 16.553 52.6107 16.553ZM66.9859 9.35655C65.1319 9.35655 63.6334 10.861 63.6334 12.709V18.8571H60.8555V6.61419H63.6334V8.49771C63.6334 8.49771 64.818 6.60826 67.2524 6.60826H68.1053V9.35655H66.9859ZM76.3087 12.2588C78.2811 11.1453 79.6197 9.03078 79.6197 6.60826H76.8418C76.8418 8.65171 75.1833 10.3102 73.1399 10.3102H72.7667V0.703003H69.9888V18.8571H72.7667V13.0881H73.0984C73.3709 13.0881 73.7263 13.2658 73.8862 13.4849L77.8309 18.8571H81.1597L76.3087 12.2588Z" fill="#00BAFF"/>
</svg>
