<svg width="24" height="24" viewBox="0 0 24 24" fill="none" xmlns="http://www.w3.org/2000/svg">
<mask id="mask0_33_6" style="mask-type:alpha" maskUnits="userSpaceOnUse" x="0" y="0" width="24" height="24">
<rect width="24" height="24" fill="#D9D9D9"/>
</mask>
<g mask="url(#mask0_33_6)">
<path d="M17.6938 13.3868C16.82 13.3868 16.0013 13.0298 15.2573 12.4487L15.4384 11.6284L15.4462 11.598C15.6076 10.7245 16.1193 9.25855 17.6938 9.25855C18.8747 9.25855 19.8351 10.1852 19.8351 11.3246C19.8312 12.4601 18.8707 13.3868 17.6938 13.3868ZM17.6938 7.16594C15.6824 7.16594 14.1237 8.42681 13.49 10.5005C12.5216 9.09903 11.7895 7.41659 11.3605 6H9.19558V11.4347C9.19558 12.5057 8.29026 13.3792 7.18026 13.3792C6.07025 13.3792 5.16492 12.5057 5.16492 11.4347V6H3.00002V11.4347C2.99215 13.6602 4.86971 15.487 7.17631 15.487C9.48289 15.487 11.3605 13.6602 11.3605 11.4347V10.5232C11.7817 11.3701 12.2973 12.2246 12.9232 12.9842L11.5966 19H13.8127L14.7732 14.6363C15.6155 15.1566 16.5838 15.4832 17.6938 15.4832C20.0673 15.4832 22 13.6071 22 11.317C22 9.03068 20.0673 7.16594 17.6938 7.16594Z" fill="white"/>
</g>
</svg>
